<?xml version="1.0" encoding="UTF-8" standalone="no"?>
<!DOCTYPE svg PUBLIC "-//W3C//DTD SVG 1.1//EN"
 "http://www.w3.org/Graphics/SVG/1.1/DTD/svg11.dtd">
<!-- Generated by graphviz version 7.0.4 (20221203.1631)
 -->
<!-- Title: xstd::bitset::test Pages: 1 -->
<svg width="212pt" height="45pt"
 viewBox="0.00 0.00 212.00 45.00" xmlns="http://www.w3.org/2000/svg" xmlns:xlink="http://www.w3.org/1999/xlink">
<g id="graph0" class="graph" transform="scale(1 1) rotate(0) translate(4 41)">
<title>xstd::bitset::test</title>
<!-- Node1 -->
<g id="node1" class="node">
<title>Node1</title>
<g id="a_node1"><a xlink:title=" ">
<polygon fill="#999999" stroke="#666666" points="84,-19 0,-19 0,0 84,0 84,-19"/>
<text text-anchor="middle" x="42" y="-7" font-family="Helvetica,sans-Serif" font-size="10.00">xstd::bitset::test</text>
</a>
</g>
</g>
<!-- Node2 -->
<g id="node2" class="node">
<title>Node2</title>
<g id="a_node2"><a xlink:href="classxstd_1_1bitset.html#a65dc97f360f9db41fb56035df091e036" target="_top" xlink:title=" ">
<polygon fill="white" stroke="#666666" points="204,-19 120,-19 120,0 204,0 204,-19"/>
<text text-anchor="middle" x="162" y="-7" font-family="Helvetica,sans-Serif" font-size="10.00">xstd::bitset::test</text>
</a>
</g>
</g>
<!-- Node1&#45;&gt;Node2 -->
<g id="edge1" class="edge">
<title>Node1&#45;&gt;Node2</title>
<path fill="none" stroke="#63b8ff" d="M84.27,-9.5C91.95,-9.5 100.07,-9.5 108.05,-9.5"/>
<polygon fill="#63b8ff" stroke="#63b8ff" points="108.04,-13 118.04,-9.5 108.04,-6 108.04,-13"/>
</g>
<!-- Node2&#45;&gt;Node2 -->
<g id="edge2" class="edge">
<title>Node2&#45;&gt;Node2</title>
<path fill="none" stroke="#63b8ff" d="M143.21,-19.37C134.64,-27.94 140.91,-37 162,-37 173.54,-37 180.64,-34.29 183.3,-30.43"/>
<polygon fill="#63b8ff" stroke="#63b8ff" points="186.75,-29.82 181.12,-20.84 179.92,-31.37 186.75,-29.82"/>
</g>
</g>
</svg>
