<?xml version="1.0" encoding="UTF-8" standalone="no"?>
<!DOCTYPE svg PUBLIC "-//W3C//DTD SVG 1.1//EN"
 "http://www.w3.org/Graphics/SVG/1.1/DTD/svg11.dtd">
<!-- Generated by graphviz version 7.0.4 (20221203.1631)
 -->
<!-- Title: xstd::bitset::reset Pages: 1 -->
<svg width="222pt" height="45pt"
 viewBox="0.00 0.00 222.00 45.00" xmlns="http://www.w3.org/2000/svg" xmlns:xlink="http://www.w3.org/1999/xlink">
<g id="graph0" class="graph" transform="scale(1 1) rotate(0) translate(4 41)">
<title>xstd::bitset::reset</title>
<!-- Node1 -->
<g id="node1" class="node">
<title>Node1</title>
<g id="a_node1"><a xlink:title=" ">
<polygon fill="#999999" stroke="#666666" points="89,-19 0,-19 0,0 89,0 89,-19"/>
<text text-anchor="middle" x="44.5" y="-7" font-family="Helvetica,sans-Serif" font-size="10.00">xstd::bitset::reset</text>
</a>
</g>
</g>
<!-- Node2 -->
<g id="node2" class="node">
<title>Node2</title>
<g id="a_node2"><a xlink:href="classxstd_1_1bitset.html#a80e145c08ec3845dfc10eb8cdc99872a" target="_top" xlink:title=" ">
<polygon fill="white" stroke="#666666" points="214,-19 125,-19 125,0 214,0 214,-19"/>
<text text-anchor="middle" x="169.5" y="-7" font-family="Helvetica,sans-Serif" font-size="10.00">xstd::bitset::reset</text>
</a>
</g>
</g>
<!-- Node1&#45;&gt;Node2 -->
<g id="edge1" class="edge">
<title>Node1&#45;&gt;Node2</title>
<path fill="none" stroke="#63b8ff" d="M89.21,-9.5C97,-9.5 105.21,-9.5 113.27,-9.5"/>
<polygon fill="#63b8ff" stroke="#63b8ff" points="113,-13 123,-9.5 113,-6 113,-13"/>
</g>
<!-- Node2&#45;&gt;Node2 -->
<g id="edge2" class="edge">
<title>Node2&#45;&gt;Node2</title>
<path fill="none" stroke="#63b8ff" d="M149.93,-19.37C141,-27.94 147.53,-37 169.5,-37 181.52,-37 188.91,-34.29 191.69,-30.43"/>
<polygon fill="#63b8ff" stroke="#63b8ff" points="195.13,-29.77 189.42,-20.84 188.31,-31.38 195.13,-29.77"/>
</g>
</g>
</svg>
