<?xml version="1.0" encoding="UTF-8" standalone="no"?>
<!DOCTYPE svg PUBLIC "-//W3C//DTD SVG 1.1//EN"
 "http://www.w3.org/Graphics/SVG/1.1/DTD/svg11.dtd">
<!-- Generated by graphviz version 7.0.4 (20221203.1631)
 -->
<!-- Title: xstd::bitset&lt; T &gt; Pages: 1 -->
<svg width="106pt" height="148pt"
 viewBox="0.00 0.00 106.00 148.00" xmlns="http://www.w3.org/2000/svg" xmlns:xlink="http://www.w3.org/1999/xlink">
<g id="graph0" class="graph" transform="scale(1 1) rotate(0) translate(4 144)">
<title>xstd::bitset&lt; T &gt;</title>
<!-- Node1 -->
<g id="node1" class="node">
<title>Node1</title>
<g id="a_node1"><a xlink:title=" ">
<polygon fill="#999999" stroke="#666666" points="92,-74 6,-74 6,-55 92,-55 92,-74"/>
<text text-anchor="middle" x="49" y="-62" font-family="Helvetica,sans-Serif" font-size="10.00">xstd::bitset&lt; T &gt;</text>
</a>
</g>
</g>
<!-- Node3 -->
<g id="node3" class="node">
<title>Node3</title>
<g id="a_node3"><a xlink:href="classxstd_1_1bitmanip.html" target="_top" xlink:title=" ">
<polygon fill="white" stroke="#666666" points="98,-19 0,-19 0,0 98,0 98,-19"/>
<text text-anchor="middle" x="49" y="-7" font-family="Helvetica,sans-Serif" font-size="10.00">xstd::bitmanip&lt; T &gt;</text>
</a>
</g>
</g>
<!-- Node1&#45;&gt;Node3 -->
<g id="edge2" class="edge">
<title>Node1&#45;&gt;Node3</title>
<path fill="none" stroke="#63b8ff" d="M49,-43.35C49,-35.1 49,-25.97 49,-19.44"/>
<polygon fill="#63b8ff" stroke="#63b8ff" points="45.5,-43.23 49,-53.23 52.5,-43.23 45.5,-43.23"/>
</g>
<!-- Node2 -->
<g id="node2" class="node">
<title>Node2</title>
<g id="a_node2"><a xlink:title=" ">
<polygon fill="white" stroke="#666666" points="95,-140 3,-140 3,-110 95,-110 95,-140"/>
<text text-anchor="start" x="11" y="-128" font-family="Helvetica,sans-Serif" font-size="10.00">std::bitset&lt; sizeof</text>
<text text-anchor="middle" x="49" y="-117" font-family="Helvetica,sans-Serif" font-size="10.00">(T) *8 &gt;</text>
</a>
</g>
</g>
<!-- Node2&#45;&gt;Node1 -->
<g id="edge1" class="edge">
<title>Node2&#45;&gt;Node1</title>
<path fill="none" stroke="#63b8ff" d="M49,-98.3C49,-89.65 49,-80.58 49,-74.18"/>
<polygon fill="#63b8ff" stroke="#63b8ff" points="45.5,-98.03 49,-108.03 52.5,-98.03 45.5,-98.03"/>
</g>
</g>
</svg>
