<?xml version="1.0" encoding="UTF-8" standalone="no"?>
<!DOCTYPE svg PUBLIC "-//W3C//DTD SVG 1.1//EN"
 "http://www.w3.org/Graphics/SVG/1.1/DTD/svg11.dtd">
<!-- Generated by graphviz version 3.0.0 (20221109.1736)
 -->
<!-- Title: xstd::bitset::test Pages: 1 -->
<svg width="212pt" height="46pt"
 viewBox="0.00 0.00 212.00 46.00" xmlns="http://www.w3.org/2000/svg" xmlns:xlink="http://www.w3.org/1999/xlink">
<g id="graph0" class="graph" transform="scale(1 1) rotate(0) translate(4 42)">
<title>xstd::bitset::test</title>
<polygon fill="white" stroke="transparent" points="-4,4 -4,-42 208,-42 208,4 -4,4"/>
<!-- Node1 -->
<g id="node1" class="node">
<title>Node1</title>
<g id="a_node1"><a xlink:title=" ">
<polygon fill="#bfbfbf" stroke="black" points="0,-0.5 0,-19.5 84,-19.5 84,-0.5 0,-0.5"/>
<text text-anchor="middle" x="42" y="-7.5" font-family="Helvetica,sans-Serif" font-size="10.00">xstd::bitset::test</text>
</a>
</g>
</g>
<!-- Node2 -->
<g id="node2" class="node">
<title>Node2</title>
<g id="a_node2"><a xlink:href="classxstd_1_1bitset.html#a65dc97f360f9db41fb56035df091e036" target="_top" xlink:title=" ">
<polygon fill="white" stroke="black" points="120,-0.5 120,-19.5 204,-19.5 204,-0.5 120,-0.5"/>
<text text-anchor="middle" x="162" y="-7.5" font-family="Helvetica,sans-Serif" font-size="10.00">xstd::bitset::test</text>
</a>
</g>
</g>
<!-- Node1&#45;&gt;Node2 -->
<g id="edge1" class="edge">
<title>Node1&#45;&gt;Node2</title>
<path fill="none" stroke="midnightblue" d="M84.27,-10C92.49,-10 101.22,-10 109.73,-10"/>
<polygon fill="midnightblue" stroke="midnightblue" points="109.95,-13.5 119.95,-10 109.95,-6.5 109.95,-13.5"/>
</g>
<!-- Node2&#45;&gt;Node2 -->
<g id="edge2" class="edge">
<title>Node2&#45;&gt;Node2</title>
<path fill="none" stroke="midnightblue" d="M143.81,-19.76C134.96,-28.57 141.03,-38 162,-38 175.44,-38 182.75,-34.13 183.95,-29.03"/>
<polygon fill="midnightblue" stroke="midnightblue" points="187.19,-27.71 180.19,-19.76 180.7,-30.34 187.19,-27.71"/>
</g>
</g>
</svg>
