<?xml version="1.0" encoding="UTF-8" standalone="no"?>
<!DOCTYPE svg PUBLIC "-//W3C//DTD SVG 1.1//EN"
 "http://www.w3.org/Graphics/SVG/1.1/DTD/svg11.dtd">
<!-- Generated by graphviz version 7.0.4 (20221203.1631)
 -->
<!-- Title: xstd::bitset::set Pages: 1 -->
<svg width="206pt" height="45pt"
 viewBox="0.00 0.00 206.00 45.00" xmlns="http://www.w3.org/2000/svg" xmlns:xlink="http://www.w3.org/1999/xlink">
<g id="graph0" class="graph" transform="scale(1 1) rotate(0) translate(4 41)">
<title>xstd::bitset::set</title>
<!-- Node1 -->
<g id="node1" class="node">
<title>Node1</title>
<g id="a_node1"><a xlink:title=" ">
<polygon fill="#999999" stroke="#666666" points="81,-19 0,-19 0,0 81,0 81,-19"/>
<text text-anchor="middle" x="40.5" y="-7" font-family="Helvetica,sans-Serif" font-size="10.00">xstd::bitset::set</text>
</a>
</g>
</g>
<!-- Node2 -->
<g id="node2" class="node">
<title>Node2</title>
<g id="a_node2"><a xlink:href="classxstd_1_1bitset.html#a0c3b796d22440638cb5cabf6560ac7e9" target="_top" xlink:title=" ">
<polygon fill="white" stroke="#666666" points="198,-19 117,-19 117,0 198,0 198,-19"/>
<text text-anchor="middle" x="157.5" y="-7" font-family="Helvetica,sans-Serif" font-size="10.00">xstd::bitset::set</text>
</a>
</g>
</g>
<!-- Node1&#45;&gt;Node2 -->
<g id="edge1" class="edge">
<title>Node1&#45;&gt;Node2</title>
<path fill="none" stroke="#63b8ff" d="M81.4,-9.5C89.07,-9.5 97.2,-9.5 105.18,-9.5"/>
<polygon fill="#63b8ff" stroke="#63b8ff" points="105.16,-13 115.16,-9.5 105.16,-6 105.16,-13"/>
</g>
<!-- Node2&#45;&gt;Node2 -->
<g id="edge2" class="edge">
<title>Node2&#45;&gt;Node2</title>
<path fill="none" stroke="#63b8ff" d="M139.18,-19.37C130.83,-27.94 136.93,-37 157.5,-37 168.75,-37 175.67,-34.29 178.27,-30.43"/>
<polygon fill="#63b8ff" stroke="#63b8ff" points="181.72,-29.85 176.14,-20.85 174.89,-31.37 181.72,-29.85"/>
</g>
</g>
</svg>
