<?xml version="1.0" encoding="UTF-8" standalone="no"?>
<!DOCTYPE svg PUBLIC "-//W3C//DTD SVG 1.1//EN"
 "http://www.w3.org/Graphics/SVG/1.1/DTD/svg11.dtd">
<!-- Generated by graphviz version 3.0.0 (20221109.1736)
 -->
<!-- Title: xstd::bitset::set Pages: 1 -->
<svg width="206pt" height="46pt"
 viewBox="0.00 0.00 206.00 46.00" xmlns="http://www.w3.org/2000/svg" xmlns:xlink="http://www.w3.org/1999/xlink">
<g id="graph0" class="graph" transform="scale(1 1) rotate(0) translate(4 42)">
<title>xstd::bitset::set</title>
<polygon fill="white" stroke="transparent" points="-4,4 -4,-42 202,-42 202,4 -4,4"/>
<!-- Node1 -->
<g id="node1" class="node">
<title>Node1</title>
<g id="a_node1"><a xlink:title=" ">
<polygon fill="#bfbfbf" stroke="black" points="0,-0.5 0,-19.5 81,-19.5 81,-0.5 0,-0.5"/>
<text text-anchor="middle" x="40.5" y="-7.5" font-family="Helvetica,sans-Serif" font-size="10.00">xstd::bitset::set</text>
</a>
</g>
</g>
<!-- Node2 -->
<g id="node2" class="node">
<title>Node2</title>
<g id="a_node2"><a xlink:href="classxstd_1_1bitset.html#a0c3b796d22440638cb5cabf6560ac7e9" target="_top" xlink:title=" ">
<polygon fill="white" stroke="black" points="117,-0.5 117,-19.5 198,-19.5 198,-0.5 117,-0.5"/>
<text text-anchor="middle" x="157.5" y="-7.5" font-family="Helvetica,sans-Serif" font-size="10.00">xstd::bitset::set</text>
</a>
</g>
</g>
<!-- Node1&#45;&gt;Node2 -->
<g id="edge1" class="edge">
<title>Node1&#45;&gt;Node2</title>
<path fill="none" stroke="midnightblue" d="M81.08,-10C89.3,-10 98.06,-10 106.6,-10"/>
<polygon fill="midnightblue" stroke="midnightblue" points="106.85,-13.5 116.85,-10 106.85,-6.5 106.85,-13.5"/>
</g>
<!-- Node2&#45;&gt;Node2 -->
<g id="edge2" class="edge">
<title>Node2&#45;&gt;Node2</title>
<path fill="none" stroke="midnightblue" d="M139.62,-19.76C130.92,-28.57 136.88,-38 157.5,-38 170.39,-38 177.55,-34.31 178.98,-29.4"/>
<polygon fill="midnightblue" stroke="midnightblue" points="182.16,-27.9 175.38,-19.76 175.6,-30.35 182.16,-27.9"/>
</g>
</g>
</svg>
