<?xml version="1.0" encoding="UTF-8" standalone="no"?>
<!DOCTYPE svg PUBLIC "-//W3C//DTD SVG 1.1//EN"
 "http://www.w3.org/Graphics/SVG/1.1/DTD/svg11.dtd">
<!-- Generated by graphviz version 3.0.0 (20221109.1736)
 -->
<!-- Title: xstd::bitset::reset Pages: 1 -->
<svg width="222pt" height="46pt"
 viewBox="0.00 0.00 222.00 46.00" xmlns="http://www.w3.org/2000/svg" xmlns:xlink="http://www.w3.org/1999/xlink">
<g id="graph0" class="graph" transform="scale(1 1) rotate(0) translate(4 42)">
<title>xstd::bitset::reset</title>
<polygon fill="white" stroke="transparent" points="-4,4 -4,-42 218,-42 218,4 -4,4"/>
<!-- Node1 -->
<g id="node1" class="node">
<title>Node1</title>
<g id="a_node1"><a xlink:title=" ">
<polygon fill="#bfbfbf" stroke="black" points="0,-0.5 0,-19.5 89,-19.5 89,-0.5 0,-0.5"/>
<text text-anchor="middle" x="44.5" y="-7.5" font-family="Helvetica,sans-Serif" font-size="10.00">xstd::bitset::reset</text>
</a>
</g>
</g>
<!-- Node2 -->
<g id="node2" class="node">
<title>Node2</title>
<g id="a_node2"><a xlink:href="classxstd_1_1bitset.html#a80e145c08ec3845dfc10eb8cdc99872a" target="_top" xlink:title=" ">
<polygon fill="white" stroke="black" points="125,-0.5 125,-19.5 214,-19.5 214,-0.5 125,-0.5"/>
<text text-anchor="middle" x="169.5" y="-7.5" font-family="Helvetica,sans-Serif" font-size="10.00">xstd::bitset::reset</text>
</a>
</g>
</g>
<!-- Node1&#45;&gt;Node2 -->
<g id="edge1" class="edge">
<title>Node1&#45;&gt;Node2</title>
<path fill="none" stroke="midnightblue" d="M89.21,-10C97.46,-10 106.17,-10 114.69,-10"/>
<polygon fill="midnightblue" stroke="midnightblue" points="114.93,-13.5 124.93,-10 114.93,-6.5 114.93,-13.5"/>
</g>
<!-- Node2&#45;&gt;Node2 -->
<g id="edge2" class="edge">
<title>Node2&#45;&gt;Node2</title>
<path fill="none" stroke="midnightblue" d="M150.39,-19.76C141.09,-28.57 147.46,-38 169.5,-38 183.62,-38 191.31,-34.13 192.57,-29.03"/>
<polygon fill="midnightblue" stroke="midnightblue" points="195.75,-27.58 188.61,-19.76 189.31,-30.33 195.75,-27.58"/>
</g>
</g>
</svg>
