<?xml version="1.0" encoding="UTF-8" standalone="no"?>
<!DOCTYPE svg PUBLIC "-//W3C//DTD SVG 1.1//EN"
 "http://www.w3.org/Graphics/SVG/1.1/DTD/svg11.dtd">
<!-- Generated by graphviz version 7.0.4 (20221203.1631)
 -->
<!-- Title: Graphical Class Hierarchy Pages: 1 -->
<svg width="323pt" height="27pt"
 viewBox="0.00 0.00 323.00 27.00" xmlns="http://www.w3.org/2000/svg" xmlns:xlink="http://www.w3.org/1999/xlink">
<g id="graph0" class="graph" transform="scale(1 1) rotate(0) translate(4 23)">
<title>Graphical Class Hierarchy</title>
<!-- Node0 -->
<g id="node1" class="node">
<title>Node0</title>
<g id="a_node1"><a xlink:title=" ">
<polygon fill="#e0e0e0" stroke="#999999" points="59,-19 0,-19 0,0 59,0 59,-19"/>
<text text-anchor="middle" x="29.5" y="-7" font-family="Helvetica,sans-Serif" font-size="10.00">std::bitset</text>
</a>
</g>
</g>
<!-- Node1 -->
<g id="node2" class="node">
<title>Node1</title>
<g id="a_node2"><a xlink:href="classxstd_1_1bitset.html" target="_top" xlink:title=" ">
<polygon fill="white" stroke="#666666" points="181,-19 95,-19 95,0 181,0 181,-19"/>
<text text-anchor="middle" x="138" y="-7" font-family="Helvetica,sans-Serif" font-size="10.00">xstd::bitset&lt; T &gt;</text>
</a>
</g>
</g>
<!-- Node0&#45;&gt;Node1 -->
<g id="edge1" class="edge">
<title>Node0&#45;&gt;Node1</title>
<path fill="none" stroke="#63b8ff" d="M70.74,-9.5C78.52,-9.5 86.7,-9.5 94.55,-9.5"/>
<polygon fill="#63b8ff" stroke="#63b8ff" points="70.83,-6 60.83,-9.5 70.83,-13 70.83,-6"/>
</g>
<!-- Node2 -->
<g id="node3" class="node">
<title>Node2</title>
<g id="a_node3"><a xlink:href="classxstd_1_1bitmanip.html" target="_top" xlink:title=" ">
<polygon fill="white" stroke="#666666" points="315,-19 217,-19 217,0 315,0 315,-19"/>
<text text-anchor="middle" x="266" y="-7" font-family="Helvetica,sans-Serif" font-size="10.00">xstd::bitmanip&lt; T &gt;</text>
</a>
</g>
</g>
<!-- Node1&#45;&gt;Node2 -->
<g id="edge2" class="edge">
<title>Node1&#45;&gt;Node2</title>
<path fill="none" stroke="#63b8ff" d="M192.56,-9.5C200.65,-9.5 208.97,-9.5 216.94,-9.5"/>
<polygon fill="#63b8ff" stroke="#63b8ff" points="192.82,-6 182.82,-9.5 192.82,-13 192.82,-6"/>
</g>
</g>
</svg>
